<svg width="60" height="70" viewBox="0 0 60 70" xmlns="http://www.w3.org/2000/svg"><rect width="58" height="100%" fill="#00163b" x="1" y="0"></rect><path fill-rule="evenodd" clip-rule="evenodd" d="M0.5 0V70H59.5V0H0.5ZM3.22201 2.62228H56.8873V63.3998H3.22201V2.62228ZM56.8873 67.2986H3.22201V64.6961H56.8873V67.2986ZM50.0523 19.3256C50.0523 19.2365 50.0622 19.1475 50.0721 19.0683V19.0485C50.2509 17.7522 50.4496 16.2086 50.4695 14.8529C50.5192 11.815 50.0523 9.38075 50.0523 9.38075C50.0523 9.38075 49.8436 9.51928 49.3668 9.59844L48.5621 9.65782C48.3734 9.65782 48.1647 9.64792 47.9362 9.62813C47.6034 9.59497 47.3502 9.70693 47.0535 9.83809C46.7304 9.98094 46.3558 10.1466 45.7706 10.1724C45.7408 10.1724 45.7134 10.1749 45.6861 10.1773C45.6588 10.1798 45.6315 10.1823 45.6017 10.1823H45.552H45.5421H45.4924H45.4825C44.9758 10.1625 44.638 10.0239 44.34 9.84583L44.3499 9.85572C44.2678 9.81066 44.1886 9.76362 44.1092 9.71655L44.1092 9.71653L44.1091 9.7165L44.1091 9.71647L44.1091 9.71645L44.109 9.71642C43.7182 9.48453 43.3265 9.25211 42.5916 9.25211C41.8816 9.25211 41.2529 9.52337 40.5866 9.81081C39.8359 10.1347 39.0376 10.4791 38.0218 10.4791H37.9324C36.6608 10.4692 36.1442 10.2021 35.7866 9.9151C35.7965 9.92499 35.8064 9.93379 35.8164 9.94259C35.8362 9.96018 35.8561 9.97777 35.876 10.0042C35.7476 9.91054 35.6425 9.81166 35.5397 9.71493C35.1969 9.39243 34.8795 9.09378 33.8096 9.09378C32.959 9.09378 32.2743 9.40919 31.5324 9.75089C31.07 9.96389 30.5854 10.1871 30.0246 10.3505C30.0942 10.5583 31.2764 14.1404 31.5943 19.474C32.3269 19.3413 33.1732 19.0086 33.9137 18.7175C34.609 18.4441 35.2111 18.2074 35.5382 18.2074C35.866 18.2074 36.0548 18.3064 36.1641 18.4548C36.2733 18.5988 36.3176 18.7938 36.3647 19.0015C36.4503 19.379 36.5454 19.7983 37.0582 20.0282C37.0643 20.0343 37.0704 20.0366 37.0789 20.0399L37.0861 20.0427L37.0937 20.046L37.0979 20.048C38.1807 20.513 39.8795 20.4042 41.1114 19.7016C43.5608 18.3146 44.1879 18.6762 44.7306 18.9892C44.9429 19.1117 45.1423 19.2267 45.4328 19.2267C45.8325 19.2267 46.155 19.0786 46.454 18.9413C46.7123 18.8227 46.9532 18.7121 47.211 18.7121C47.3998 18.7121 47.5488 18.8506 47.6978 19.0287C47.7473 19.0903 47.7967 19.1575 47.8477 19.2268L47.8478 19.2269C48.0837 19.5476 48.3531 19.9136 48.8105 19.9787C49.2575 20.0381 49.6549 19.9193 49.933 19.7808L50.0523 19.3256ZM32.0211 39.6712L30.0144 35.723H27.5408L30.9184 41.7393V44.985H33.1338V41.7393L36.5115 35.723H34.0378L32.0211 39.6712ZM40.9427 42.6497L41.8964 44.985H44.3203L40.3367 35.723H38.6379L34.6443 44.985H37.0683C37.8431 43.5106 39.3532 42.6596 40.9427 42.6497ZM39.4823 39.1072L40.5751 41.7789C39.9095 41.6899 38.9161 41.8185 38.2207 42.1648L39.4823 39.1072ZM45.1645 44.985V35.723H47.3699V43.1148H50.3006V44.985H45.1645ZM12.1831 46.3105L16.7032 52.8613V46.3105H19.2464V56.9184H16.7032L12.1831 50.3677V56.9184H9.6498V46.3105H12.1831ZM16.8721 38.5827C16.8721 36.9302 15.6799 35.723 14.0308 35.723H9.6498V44.985H11.8652V41.4326H12.8685L15.074 44.985H17.6966L15.1534 41.1852C16.2363 40.7399 16.8721 39.6811 16.8721 38.5827ZM13.395 39.8988H11.8652V37.2963H13.395C13.9613 37.2963 14.6368 37.5239 14.6368 38.6025C14.6269 39.315 14.0706 39.8988 13.395 39.8988ZM22.7632 35.465C25.4554 35.465 27.6508 37.6519 27.6508 40.3434C27.6508 43.035 25.4554 45.2219 22.7632 45.212C20.061 45.212 17.8655 43.035 17.8655 40.3434C17.8655 37.6519 20.061 35.465 22.7632 35.465ZM22.7632 37.6222C21.3227 37.6222 20.1504 38.8394 20.1504 40.3434C20.1504 41.8475 21.3227 43.0746 22.7632 43.0746C24.2036 43.0746 25.3759 41.8475 25.3759 40.3434C25.3759 38.8492 24.2036 37.6222 22.7632 37.6222ZM31.2667 46.3105L34.0284 53.0493L36.8001 46.3105H39.5817L34.9821 56.9184H33.0548L28.4851 46.3105H31.2667ZM24.4922 46.3209L19.9225 56.9189H22.7041C23.5882 55.2268 25.3168 54.257 27.1348 54.2471L28.2276 56.9189H31.0092L26.4394 46.3209H24.4922ZM24.0253 53.693L25.4658 50.1999L26.7175 53.2576C25.9526 53.1487 24.8201 53.2972 24.0253 53.693ZM45.1645 50.8327L42.8503 46.3105H40.019L43.8934 53.2076V56.9184H46.4267V53.2076L50.3011 46.3105H47.4698L45.1645 50.8327Z" fill="#fff"></path></svg>
